<svg width="auto" height="100%" viewBox="0 0 80 80" fill="none" xmlns="http://www.w3.org/2000/svg">
    <path d="M77.921 80V78.9485C78.3757 70.0964 74.924 64.4063 64.8482 61.0414L75.5415 55.2036V2.55859H1.89453V65.6596L17.3734 63.8322C17.3734 63.8322 14.1541 65.7984 21.2395 75.0628C22.2004 76.5554 22.822 78.2408 23.0603 80" fill="white"/>
    <path d="M0 0L0.00110222 80H23.0603C22.822 78.2409 22.2005 76.5555 21.2395 75.0628C17.4278 70.6986 18.3294 64.5267 19.1421 65.4599C19.9584 66.5903 21.1638 67.379 22.5264 67.6745C20.8054 64.4538 19.7501 60.9197 19.4232 57.2827C19.4232 42.2565 24.9949 36.6271 24.9949 36.6271C24.9949 36.6271 25.4474 30.5641 24.6727 30.4105C22.891 30.059 20.6081 28.5372 20.6081 26.5542C19.7008 26.5093 18.7948 26.6646 17.9542 27.0091C17.1137 27.3536 16.3593 27.8788 15.7445 28.5475C15.1297 29.2162 14.6696 30.012 14.3968 30.8785C14.124 31.745 14.0452 32.6608 14.166 33.5611C14.1515 34.1756 14.3782 34.7714 14.7977 35.2207C15.2171 35.6701 15.7958 35.9373 16.4099 35.9651C17.7912 35.9651 18.2969 35.0818 18.2969 33.854C18.28 33.6544 18.3075 33.4535 18.3775 33.2657C18.4475 33.078 18.5583 32.908 18.7017 32.7681C18.8452 32.6283 19.0179 32.5219 19.2073 32.4567C19.3968 32.3915 19.5984 32.369 19.7975 32.3909C20.2565 32.3909 21.1505 32.5818 21.1505 35.2414C21.2363 36.1039 21.1328 36.9747 20.8473 37.793C20.5617 38.6113 20.101 39.3575 19.4974 39.9794C18.8937 40.6012 18.1615 41.0839 17.352 41.3936C16.5425 41.7033 15.6752 41.8326 14.8106 41.7724C11.1702 41.7724 6.37095 39.0771 6.37095 30.0443C6.48504 25.9336 8.15893 22.0203 11.0529 19.0986C13.9469 16.177 17.8441 14.4659 21.9535 14.3127C21.2563 14.4581 20.5985 14.7513 20.0243 15.1727C19.0193 15.9313 18.1119 16.8111 17.3224 17.7921C17.7458 17.8149 18.1675 17.862 18.5854 17.9331C18.9097 17.9884 19.2426 17.9627 19.5546 17.8583C19.8666 17.7539 20.1479 17.574 20.3736 17.3347C20.8475 16.8091 21.3542 16.314 21.8906 15.8525C22.6294 15.2968 23.4755 14.9005 24.3754 14.6887C25.2752 14.4769 26.2093 14.4542 27.1184 14.622C27.6425 14.7127 28.1503 14.8227 28.6484 14.9573C27.2483 15.1278 25.9134 15.647 24.7659 16.4672C23.7321 17.2405 22.781 18.1184 21.9275 19.0871C21.9275 19.0871 22.4374 19.3687 22.7413 19.5428C23.0684 19.6658 23.424 19.6917 23.7655 19.6174C24.107 19.5431 24.4197 19.3718 24.6662 19.124C25.1905 18.5947 25.7534 18.1051 26.3502 17.6591C27.2514 16.8815 28.3667 16.3945 29.5497 16.2622C30.7326 16.1298 31.928 16.3582 32.9788 16.9175C33.1492 17.0298 33.3184 17.1502 33.4867 17.2706C32.0163 17.4543 30.5945 17.9164 29.2972 18.6324C27.9774 19.4611 26.7749 20.4632 25.7219 21.6121C25.7219 21.6121 26.2102 22.0006 26.4793 22.2143C26.7922 22.393 27.1561 22.4613 27.5126 22.4082C27.869 22.355 28.1972 22.1836 28.4444 21.9214C29.0522 21.3296 29.7076 20.7889 30.4041 20.3046C31.8514 19.3449 33.5307 18.7931 35.2652 18.7074C35.811 19.2375 36.0116 19.6992 36.5357 19.6992C37.1065 19.6992 37.5047 19.2613 37.9713 18.6592C39.2692 18.6583 40.535 19.0624 41.5921 19.8153C42.1436 20.1371 42.6635 20.5102 43.1449 20.9297C43.861 21.5281 44.4025 21.4049 44.7226 21.0881C44.9646 20.8473 45.3378 20.4175 45.3378 20.4175C44.5342 19.4734 43.5579 18.6912 42.4612 18.1128C41.4629 17.5435 40.3315 17.2488 39.1822 17.2588C39.3993 17.057 39.6275 16.8675 39.8658 16.6913C40.612 16.3329 41.4414 16.1837 42.2658 16.2596C43.0901 16.3354 43.8784 16.6335 44.5467 17.1221C45.0864 17.4088 45.5769 17.7799 45.9996 18.2213C46.1819 18.4146 46.4233 18.542 46.6859 18.5833C46.9485 18.6247 47.2173 18.5777 47.4503 18.4497C47.6917 18.2549 47.9609 18.0973 48.2489 17.982C47.5176 17.0147 46.5729 16.2291 45.4884 15.6865C44.8361 15.3656 44.1303 15.1673 43.4062 15.1016C44.4387 14.8638 45.5052 14.8105 46.5562 14.9443C51.1687 15.5661 52.5501 20.6768 52.2625 25.1392C51.7796 32.6111 52.0357 34.4157 53.8369 34.4248C54.2694 34.4028 54.6782 34.2201 54.983 33.9125C55.2879 33.6049 55.4669 33.1946 55.4852 32.7619C55.6316 31.8135 55.9094 31.0665 56.5214 31.0665C57.7822 31.0665 58.0762 32.2769 58.0762 33.0673C58.0762 38.0529 54.8656 39.0586 52.1106 39.0586C49.3545 39.0586 47.2398 36.9188 46.4975 33.2258C46.2621 32.0489 46.0799 30.8738 46.0799 30.8738C45.6811 30.965 45.2964 31.1095 44.9362 31.3034C44.2266 31.6593 43.5039 32.1206 43.5039 32.1206C43.5039 32.1206 44.2841 33.9478 44.4522 34.4714C44.4888 35.4676 44.4212 36.465 44.2505 37.4472C47.2621 42.2808 48.8213 47.8781 48.7425 53.5726C48.7425 62.8935 45.2856 71.4169 42.9169 74.5864C43.6194 74.4277 44.2834 74.1308 44.87 73.7129C47.09 71.5417 47.6543 71.1229 49.9904 70.9155C51.477 67.0288 51.9977 62.2338 50.5047 51.3634C58.9942 57.314 59.2514 62.2945 58.0459 67.7363C63.3724 65.0138 60.3886 59.6524 60.3886 59.6524C61.6833 60.5163 63.0561 61.257 64.489 61.8649C74.3663 65.91 77.921 71.2335 77.921 78.9484V80H80V0H0Z" fill="#05C3DE"/>
    <path d="M41.8014 37.3387C41.3499 37.2898 41.338 37.2681 41.3369 36.1461C41.3358 35.2683 41.8046 35.2531 42.6304 35.4919C42.7226 34.9373 42.9949 33.313 42.3308 33.313C41.8317 33.313 41.4487 33.7025 40.7933 33.7025C40.0251 33.7025 38.5255 33.1818 38.008 33.1818C37.0325 33.1818 37.5338 34.8923 37.5338 35.57C39.4749 35.3161 40.2823 35.0307 40.2823 35.9378C40.2823 37.4558 40.5318 37.2149 38.0849 37.4277C36.8187 37.5361 36.0983 37.6024 35.342 37.6197C35.342 37.6197 34.6269 34.7626 35.0034 34.1914C35.6448 33.2153 36.3575 32.2879 37.1356 31.4168C37.5924 30.9042 37.5924 30.9042 37.3602 30.1971C37.0433 29.2434 35.8074 25.4716 35.8074 25.4716C35.7127 24.9604 35.7352 24.4344 35.8734 23.9332C36.0115 23.432 36.2617 22.9687 36.605 22.5783C36.8242 22.276 36.6669 22.1512 36.4401 22.2609C35.2226 22.8485 33.2858 24.1066 33.3606 25.7961C33.4192 27.14 32.8474 26.9332 31.8297 26.6983C30.9633 26.4584 30.0585 26.3896 29.1658 26.496C27.8149 26.7292 26.9891 27.7074 27.1693 28.6482C27.3289 29.4842 28.057 30.2411 30.1859 30.2411C32.2464 30.2411 32.4689 28.9868 33.3911 30.6415C34.1777 32.0461 34.8343 32.4694 33.7221 33.5805C30.9605 36.3437 30.8639 35.4452 30.8639 38.2534C30.8639 41.2146 33.9986 43.5421 35.7054 43.0018C37.1356 42.6808 38.5361 42.239 39.8916 41.6812C39.9861 41.6118 39.9676 41.3828 39.8374 41.3807C39.2331 41.3741 36.9034 41.385 36.7222 40.5408C36.5398 39.6956 36.4043 39.0694 36.4043 39.0694C37.7602 38.8147 39.1383 38.6972 40.5177 38.719C41.2898 38.7248 42.061 38.7734 42.8278 38.8643C42.9673 38.4355 43.0369 37.9871 43.034 37.5362C42.6276 37.4453 42.2159 37.3794 41.8014 37.3387Z" fill="#05C3DE"/>
    <path d="M42.1454 29.4025C42.5153 29.6009 42.9244 29.715 43.3435 29.7365C43.7626 29.7581 44.1813 29.6866 44.5696 29.5272C46.0984 29.007 46.2774 27.2497 44.5999 26.9605C43.2934 26.7353 42.8747 27.4151 42.0772 26.6713C41.5205 26.1537 41.1636 25.8 40.7751 25.424C40.6038 25.2602 40.4344 25.1305 40.3498 25.162C40.263 25.1929 40.2261 25.2965 40.3368 25.5596C40.7997 26.9019 41.4061 28.1903 42.1454 29.4025V29.4025Z" fill="#05C3DE"/>
    <path d="M67.1452 48.9613C67.8985 48.9673 68.6331 49.1965 69.2563 49.6198C69.8794 50.0431 70.3631 50.6415 70.6464 51.3395C70.9296 52.0376 70.9997 52.8039 70.8477 53.5417C70.6957 54.2795 70.3285 54.9558 69.7925 55.485C69.2564 56.0143 68.5755 56.3728 67.8358 56.5154C67.0961 56.658 66.3308 56.5781 65.6364 56.286C64.9421 55.9939 64.3498 55.5025 63.9345 54.874C63.5192 54.2455 63.2995 53.5081 63.303 52.7548C63.3027 52.2524 63.4022 51.755 63.5957 51.2914C63.7893 50.8278 64.0731 50.4073 64.4306 50.0543C64.7881 49.7013 65.2122 49.423 65.6782 49.2353C66.1442 49.0477 66.6429 48.9545 67.1452 48.9613V48.9613Z" fill="white"/>
    <path d="M67.2272 49.5229C66.5783 49.4981 65.9367 49.668 65.3852 50.011C64.8337 50.3539 64.3975 50.8541 64.1327 51.4471C63.8679 52.0401 63.7867 52.6988 63.8996 53.3384C64.0124 53.978 64.3141 54.5691 64.7658 55.0357C65.2176 55.5023 65.7986 55.823 66.4342 55.9565C67.0698 56.09 67.7307 56.0302 68.332 55.7848C68.9333 55.5394 69.4474 55.1196 69.808 54.5795C70.1686 54.0394 70.3593 53.4037 70.3555 52.7543C70.3679 52.3352 70.2962 51.918 70.1446 51.5271C69.9931 51.1363 69.7648 50.7797 69.4732 50.4785C69.1816 50.1773 68.8326 49.9376 68.4469 49.7735C68.0612 49.6093 67.6464 49.5241 67.2272 49.5229ZM68.3797 54.9938L67.1643 53.0787H66.4319V54.9939H65.7386V50.5396H67.4628C68.5218 50.5396 69.0197 50.9585 69.0197 51.8146C69.0295 51.9729 69.0062 52.1315 68.9512 52.2802C68.8963 52.429 68.811 52.5647 68.7008 52.6787C68.5906 52.7927 68.4578 52.8826 68.311 52.9424C68.1641 53.0023 68.0064 53.031 67.8479 53.0266L69.1229 54.9938H68.3797Z" fill="#05C3DE"/>
    <path d="M68.3167 51.7843C68.3167 51.1928 67.8067 51.1006 67.3368 51.1006H66.4199V52.5199H67.1415C67.7557 52.5199 68.3167 52.4863 68.3167 51.7843Z" fill="#05C3DE"/>
</svg>
    